<svg width="20" height="25" viewBox="0 0 20 25" fill="none" xmlns="http://www.w3.org/2000/svg">
<path d="M1.49792 7.9137C2.3252 7.9137 2.99585 7.23234 2.99585 6.39184C2.99585 5.55134 2.3252 4.86997 1.49792 4.86997C0.670643 4.86997 0 5.55134 0 6.39184C0 7.23234 0.670643 7.9137 1.49792 7.9137Z" fill="#509EE3"/>
<path d="M1.49792 12.1749C2.3252 12.1749 2.99585 11.4936 2.99585 10.6531C2.99585 9.81256 2.3252 9.1312 1.49792 9.1312C0.670643 9.1312 0 9.81256 0 10.6531C0 11.4936 0.670643 12.1749 1.49792 12.1749Z" fill="#509EE3"/>
<path opacity="0.2" d="M5.69211 7.9137C6.51939 7.9137 7.19003 7.23234 7.19003 6.39184C7.19003 5.55134 6.51939 4.86997 5.69211 4.86997C4.86483 4.86997 4.19418 5.55134 4.19418 6.39184C4.19418 7.23234 4.86483 7.9137 5.69211 7.9137Z" fill="#509EE3"/>
<path d="M5.69211 12.2163C6.51939 12.2163 7.19003 11.535 7.19003 10.6945C7.19003 9.85395 6.51939 9.17259 5.69211 9.17259C4.86483 9.17259 4.19418 9.85395 4.19418 10.6945C4.19418 11.535 4.86483 12.2163 5.69211 12.2163Z" fill="#509EE3"/>
<path opacity="0.2" d="M9.88629 7.9137C10.7136 7.9137 11.3842 7.23234 11.3842 6.39184C11.3842 5.55134 10.7136 4.86997 9.88629 4.86997C9.05901 4.86997 8.38837 5.55134 8.38837 6.39184C8.38837 7.23234 9.05901 7.9137 9.88629 7.9137Z" fill="#509EE3"/>
<path opacity="0.2" d="M9.88629 3.04373C10.7136 3.04373 11.3842 2.36237 11.3842 1.52187C11.3842 0.681363 10.7136 0 9.88629 0C9.05901 0 8.38837 0.681363 8.38837 1.52187C8.38837 2.36237 9.05901 3.04373 9.88629 3.04373Z" fill="#509EE3"/>
<path opacity="0.2" d="M9.88629 12.2163C10.7136 12.2163 11.3842 11.535 11.3842 10.6945C11.3842 9.85395 10.7136 9.17259 9.88629 9.17259C9.05901 9.17259 8.38837 9.85395 8.38837 10.6945C8.38837 11.535 9.05901 12.2163 9.88629 12.2163Z" fill="#509EE3"/>
<path opacity="0.2" d="M14.0805 7.9137C14.9078 7.9137 15.5784 7.23234 15.5784 6.39184C15.5784 5.55134 14.9078 4.86997 14.0805 4.86997C13.2532 4.86997 12.5826 5.55134 12.5826 6.39184C12.5826 7.23234 13.2532 7.9137 14.0805 7.9137Z" fill="#509EE3"/>
<path d="M18.2747 7.9137C19.1019 7.9137 19.7726 7.23234 19.7726 6.39184C19.7726 5.55134 19.1019 4.86997 18.2747 4.86997C17.4474 4.86997 16.7767 5.55134 16.7767 6.39184C16.7767 7.23234 17.4474 7.9137 18.2747 7.9137Z" fill="#509EE3"/>
<path d="M14.0805 12.2163C14.9078 12.2163 15.5784 11.535 15.5784 10.6945C15.5784 9.85395 14.9078 9.17259 14.0805 9.17259C13.2532 9.17259 12.5826 9.85395 12.5826 10.6945C12.5826 11.535 13.2532 12.2163 14.0805 12.2163Z" fill="#509EE3"/>
<path d="M18.2747 12.2163C19.1019 12.2163 19.7726 11.535 19.7726 10.6945C19.7726 9.85395 19.1019 9.17259 18.2747 9.17259C17.4474 9.17259 16.7767 9.85395 16.7767 10.6945C16.7767 11.535 17.4474 12.2163 18.2747 12.2163Z" fill="#509EE3"/>
<path d="M1.49792 16.4362C2.3252 16.4362 2.99585 15.7548 2.99585 14.9143C2.99585 14.0738 2.3252 13.3924 1.49792 13.3924C0.670643 13.3924 0 14.0738 0 14.9143C0 15.7548 0.670643 16.4362 1.49792 16.4362Z" fill="#509EE3"/>
<path opacity="0.2" d="M5.69211 16.4776C6.51939 16.4776 7.19003 15.7962 7.19003 14.9557C7.19003 14.1152 6.51939 13.4338 5.69211 13.4338C4.86483 13.4338 4.19418 14.1152 4.19418 14.9557C4.19418 15.7962 4.86483 16.4776 5.69211 16.4776Z" fill="#509EE3"/>
<path d="M9.88629 16.4776C10.7136 16.4776 11.3842 15.7962 11.3842 14.9557C11.3842 14.1152 10.7136 13.4338 9.88629 13.4338C9.05901 13.4338 8.38837 14.1152 8.38837 14.9557C8.38837 15.7962 9.05901 16.4776 9.88629 16.4776Z" fill="#509EE3"/>
<path opacity="0.2" d="M14.0805 16.4776C14.9078 16.4776 15.5784 15.7962 15.5784 14.9557C15.5784 14.1152 14.9078 13.4338 14.0805 13.4338C13.2532 13.4338 12.5826 14.1152 12.5826 14.9557C12.5826 15.7962 13.2532 16.4776 14.0805 16.4776Z" fill="#509EE3"/>
<path d="M18.2747 16.4776C19.1019 16.4776 19.7726 15.7962 19.7726 14.9557C19.7726 14.1152 19.1019 13.4338 18.2747 13.4338C17.4474 13.4338 16.7767 14.1152 16.7767 14.9557C16.7767 15.7962 17.4474 16.4776 18.2747 16.4776Z" fill="#509EE3"/>
<path d="M1.49792 20.6974C2.3252 20.6974 2.99585 20.016 2.99585 19.1755C2.99585 18.335 2.3252 17.6536 1.49792 17.6536C0.670643 17.6536 0 18.335 0 19.1755C0 20.016 0.670643 20.6974 1.49792 20.6974Z" fill="#509EE3"/>
<path opacity="0.2" d="M5.69211 20.7388C6.51939 20.7388 7.19003 20.0574 7.19003 19.2169C7.19003 18.3764 6.51939 17.695 5.69211 17.695C4.86483 17.695 4.19418 18.3764 4.19418 19.2169C4.19418 20.0574 4.86483 20.7388 5.69211 20.7388Z" fill="#509EE3"/>
<path opacity="0.2" d="M9.88629 20.7388C10.7136 20.7388 11.3842 20.0574 11.3842 19.2169C11.3842 18.3764 10.7136 17.695 9.88629 17.695C9.05901 17.695 8.38837 18.3764 8.38837 19.2169C8.38837 20.0574 9.05901 20.7388 9.88629 20.7388Z" fill="#509EE3"/>
<path opacity="0.2" d="M9.88629 25C10.7136 25 11.3842 24.3186 11.3842 23.4781C11.3842 22.6376 10.7136 21.9563 9.88629 21.9563C9.05901 21.9563 8.38837 22.6376 8.38837 23.4781C8.38837 24.3186 9.05901 25 9.88629 25Z" fill="#509EE3"/>
<path opacity="0.2" d="M14.0805 20.7388C14.9078 20.7388 15.5784 20.0574 15.5784 19.2169C15.5784 18.3764 14.9078 17.695 14.0805 17.695C13.2532 17.695 12.5826 18.3764 12.5826 19.2169C12.5826 20.0574 13.2532 20.7388 14.0805 20.7388Z" fill="#509EE3"/>
<path d="M18.2747 20.7388C19.1019 20.7388 19.7726 20.0574 19.7726 19.2169C19.7726 18.3764 19.1019 17.695 18.2747 17.695C17.4474 17.695 16.7767 18.3764 16.7767 19.2169C16.7767 20.0574 17.4474 20.7388 18.2747 20.7388Z" fill="#509EE3"/>
</svg>
